<svg xmlns="http://www.w3.org/2000/svg" id="a" viewBox="0 0 992.62 373.72"><defs><style>.c{stroke-width:0;fill:#3d3d3d}</style></defs><path d="m730.54 306.79 28.68-72.51h82.8l-39.29-110L851.86 0l140.76 373.72h-103.8l-24.05-66.94H730.55Z" class="c"/><path fill="#5a0fc8" stroke-width="0" d="M641.98 373.72 792.67 0h-99.9L589.69 241.51 516.4 0h-76.79l-78.7 241.51-55.5-110.05-50.23 154.74 51 87.52h98.31l71.12-216.58 67.81 216.58h98.57Z" opacity=".75"/><path d="M94.83 245.43h61.53c18.64 0 35.24-2.08 49.79-6.24l15.91-49.02 44.47-137.02c-3.39-5.37-7.26-10.45-11.61-15.23C232.1 12.64 198.69 0 154.7 0H0v373.72h94.83V245.43Zm81.45-159.45c8.92 8.98 13.38 20.99 13.38 36.04s-3.92 27.19-11.77 36.08c-8.6 9.88-24.43 14.82-47.5 14.82H94.83V72.52h35.82c21.5 0 36.71 4.49 45.63 13.47Z" class="c"/></svg>